<svg xmlns="http://www.w3.org/2000/svg" viewBox="0 0 482.42 167.45"><defs><style>.cls-1{fill:#fff;}.cls-1,.cls-2{fill-rule:evenodd;}</style></defs><g id="ãƒ¬ã‚¤ãƒ¤ãƒ¼_2" data-name="ãƒ¬ã‚¤ãƒ¤ãƒ¼ 2"><g id="ãƒ¬ã‚¤ãƒ¤ãƒ¼_1-2" data-name="ãƒ¬ã‚¤ãƒ¤ãƒ¼ 1"><path d="M68.33,115.53H58.67v-6.46a11.5,11.5,0,0,0-.31-3.52,1.33,1.33,0,0,0-1.36-.7,1.44,1.44,0,0,0-1.52.85,13.15,13.15,0,0,0-.32,3.68v17.25a12.24,12.24,0,0,0,.32,3.54,1.38,1.38,0,0,0,1.45.82,1.35,1.35,0,0,0,1.41-.82,13.68,13.68,0,0,0,.33-3.89v-4.67h9.66v1.44a28.77,28.77,0,0,1-.81,8.19,8.38,8.38,0,0,1-3.6,4.23A12.35,12.35,0,0,1,57,137.28a14.2,14.2,0,0,1-7-1.54,7.49,7.49,0,0,1-3.65-4.25,28.23,28.23,0,0,1-.89-8.18V112.45a49.13,49.13,0,0,1,.27-6,8.42,8.42,0,0,1,1.65-3.87,9.14,9.14,0,0,1,3.78-2.93,13.73,13.73,0,0,1,5.57-1.06,13.61,13.61,0,0,1,7,1.65,7.92,7.92,0,0,1,3.65,4.11,24.8,24.8,0,0,1,.87,7.67Z"/><path d="M93.41,106.05V136.5H84l.16-2.53a6.4,6.4,0,0,1-2.38,2.31,6.58,6.58,0,0,1-3.24.77,7.31,7.31,0,0,1-3.47-.73,4.79,4.79,0,0,1-2-1.95,7.14,7.14,0,0,1-.82-2.54c-.1-.88-.16-2.63-.16-5.24V106.05h9.28v20.72a22.36,22.36,0,0,0,.21,4.22c.15.45.54.67,1.19.67s1.09-.23,1.22-.69a26.11,26.11,0,0,0,.2-4.43V106.05Z"/><path d="M116.33,115.78h-8.22v-1.65a8.9,8.9,0,0,0-.24-2.68c-.16-.37-.56-.56-1.2-.56a1.36,1.36,0,0,0-1.17.52,2.55,2.55,0,0,0-.39,1.55,7.88,7.88,0,0,0,.19,2.05,3.22,3.22,0,0,0,1.17,1.43,25.88,25.88,0,0,0,4,2.28q4,2,5.3,3.71a8.64,8.64,0,0,1,1.26,5.08,12.86,12.86,0,0,1-1,5.61,6.44,6.44,0,0,1-3.23,2.91,13.19,13.19,0,0,1-5.45,1,15.1,15.1,0,0,1-6.05-1.1,6.62,6.62,0,0,1-3.45-3,13.21,13.21,0,0,1-.94-5.69v-1.47h8.21v1.92a10.42,10.42,0,0,0,.31,3.2,1.22,1.22,0,0,0,1.23.73,1.66,1.66,0,0,0,1.38-.49,3.72,3.72,0,0,0,.39-2.08,4.57,4.57,0,0,0-.51-2.73,41.57,41.57,0,0,0-5.39-3.26q-4.08-2.3-5-4.17a10.11,10.11,0,0,1-.89-4.44,11.55,11.55,0,0,1,1-5.38,6.27,6.27,0,0,1,3.27-2.67,14.06,14.06,0,0,1,5.36-.94,15,15,0,0,1,5.15.77,7.89,7.89,0,0,1,3.26,2,5.42,5.42,0,0,1,1.38,2.34,17,17,0,0,1,.24,3.37Z"/><path d="M130,102v4.79h2.5v4.82H130v16.3c0,2,.11,3.12.31,3.35s1.07.34,2.58.34v4.91H129.1a27.49,27.49,0,0,1-4.52-.26A4.77,4.77,0,0,1,122.2,135a4,4,0,0,1-1.29-2.18,38.52,38.52,0,0,1-.25-5.77V111.6h-2v-4.82h2V102Z"/><path d="M156.13,116.74v7.46a31.87,31.87,0,0,1-.41,6A8.48,8.48,0,0,1,154,133.8a8,8,0,0,1-3.48,2.46,13.82,13.82,0,0,1-4.87.79,17.45,17.45,0,0,1-5.21-.67,7.17,7.17,0,0,1-3.32-2,8.09,8.09,0,0,1-1.69-3.3,25.25,25.25,0,0,1-.5-5.82v-7.8a18.88,18.88,0,0,1,.92-6.63,7.62,7.62,0,0,1,3.3-3.84,11.68,11.68,0,0,1,6.11-1.44,13.88,13.88,0,0,1,5.35.93,8.37,8.37,0,0,1,5.12,5.49A19.08,19.08,0,0,1,156.13,116.74Zm-9.27-2.29a10.46,10.46,0,0,0-.25-3,1,1,0,0,0-1.08-.61,1.08,1.08,0,0,0-1.1.61,9.05,9.05,0,0,0-.28,3v13.74a8.74,8.74,0,0,0,.28,2.82,1.25,1.25,0,0,0,2.16.05,7.56,7.56,0,0,0,.27-2.57Z"/><path d="M169,106.05l-.16,2.9a7.41,7.41,0,0,1,2.57-2.59,6.83,6.83,0,0,1,9.25,2.59,8.39,8.39,0,0,1,2.63-2.59,6.28,6.28,0,0,1,3.26-.86,6.46,6.46,0,0,1,3.92,1.14,5.09,5.09,0,0,1,2,2.82,23.62,23.62,0,0,1,.44,5.4V136.5h-9V116.65a25.67,25.67,0,0,0-.26-4.83,1.17,1.17,0,0,0-1.23-.93,1.21,1.21,0,0,0-1.27.92,22.24,22.24,0,0,0-.29,4.84V136.5h-9V117.16a34.54,34.54,0,0,0-.22-5.37,1.09,1.09,0,0,0-1.2-.9,1.41,1.41,0,0,0-1.06.47,1.82,1.82,0,0,0-.48,1.15c0,.45,0,1.41,0,2.88V136.5h-9V106.05Z"/><path d="M224.61,115.78H216.4v-1.65a8.78,8.78,0,0,0-.25-2.68c-.16-.37-.56-.56-1.2-.56a1.36,1.36,0,0,0-1.17.52,2.55,2.55,0,0,0-.39,1.55,7.88,7.88,0,0,0,.19,2.05,3.22,3.22,0,0,0,1.17,1.43,25.88,25.88,0,0,0,4,2.28q4,2,5.3,3.71a8.64,8.64,0,0,1,1.26,5.08,12.86,12.86,0,0,1-1,5.61,6.4,6.4,0,0,1-3.23,2.91,13.16,13.16,0,0,1-5.45,1,15.05,15.05,0,0,1-6-1.1,6.61,6.61,0,0,1-3.46-3,13.37,13.37,0,0,1-.94-5.69v-1.47h8.22v1.92a10.1,10.1,0,0,0,.31,3.2,1.2,1.2,0,0,0,1.23.73,1.65,1.65,0,0,0,1.37-.49,3.72,3.72,0,0,0,.39-2.08,4.67,4.67,0,0,0-.5-2.73,41.28,41.28,0,0,0-5.4-3.26q-4.08-2.3-5-4.17a10.25,10.25,0,0,1-.89-4.44,11.55,11.55,0,0,1,1-5.38,6.35,6.35,0,0,1,3.27-2.67,14.09,14.09,0,0,1,5.36-.94,15,15,0,0,1,5.15.77,7.83,7.83,0,0,1,3.26,2,5.42,5.42,0,0,1,1.38,2.34,17,17,0,0,1,.24,3.37Z"/><path d="M237.89,106.05l-.16,2.69a8.72,8.72,0,0,1,2.73-2.44,6.73,6.73,0,0,1,3.26-.8,6.07,6.07,0,0,1,3.73,1.16,4.82,4.82,0,0,1,2,2.67,23.29,23.29,0,0,1,.39,5.14V127.3a24.52,24.52,0,0,1-.49,5.91,4.92,4.92,0,0,1-2,2.8,6.42,6.42,0,0,1-3.68,1,6.57,6.57,0,0,1-3.19-.8,8.81,8.81,0,0,1-2.69-2.39v7h-9.27V106.05Zm2.64,8.86a15.15,15.15,0,0,0-.21-3.42c-.13-.4-.52-.6-1.14-.6a1.13,1.13,0,0,0-1.19.69,12.66,12.66,0,0,0-.26,3.33v12.62A12.14,12.14,0,0,0,238,131a1.14,1.14,0,0,0,1.19.69q.9,0,1.11-.63a12.29,12.29,0,0,0,.22-3.07Z"/><path d="M263.06,99.35V136.5h-9.55V99.35Z"/><path d="M276.59,99.35v4.84H267V99.35Zm0,6.7V136.5H267V106.05Z"/><path d="M290.35,102v4.79h2.5v4.82h-2.5v16.3c0,2,.11,3.12.31,3.35s1.07.34,2.58.34v4.91H289.5a27.57,27.57,0,0,1-4.52-.26A4.77,4.77,0,0,1,282.6,135a4,4,0,0,1-1.29-2.18,38.52,38.52,0,0,1-.25-5.77V111.6h-2v-4.82h2V102Z"/><path d="M314.27,102v4.79h2.51v4.82h-2.51v16.3c0,2,.11,3.12.31,3.35s1.07.34,2.59.34v4.91h-3.74a27.63,27.63,0,0,1-4.53-.26,4.81,4.81,0,0,1-2.38-1.22,4,4,0,0,1-1.29-2.18,38.52,38.52,0,0,1-.25-5.77V111.6h-2v-4.82h2V102Z"/><path d="M328.75,99.35v8.36a8.18,8.18,0,0,1,2.58-1.66,7.92,7.92,0,0,1,3-.55,6.84,6.84,0,0,1,4.14,1.24,4.92,4.92,0,0,1,2.09,2.85,30.62,30.62,0,0,1,.38,5.91v21h-9.27V115.07a13.65,13.65,0,0,0-.26-3.42,1.27,1.27,0,0,0-2.33,0,10.27,10.27,0,0,0-.3,3.1V136.5h-9.27V99.35Z"/><path d="M365.76,121.81h-12v6.59a7.22,7.22,0,0,0,.3,2.66,1.16,1.16,0,0,0,1.15.6,1.41,1.41,0,0,0,1.41-.79,8.6,8.6,0,0,0,.36-3.07v-4h8.79V126a19.85,19.85,0,0,1-.36,4.33,8.92,8.92,0,0,1-1.66,3.24,8,8,0,0,1-3.32,2.58,12.92,12.92,0,0,1-5,.86,14.54,14.54,0,0,1-5.18-.85,8,8,0,0,1-5.23-5.59,20.49,20.49,0,0,1-.49-5.17v-8.88a15.12,15.12,0,0,1,1.08-6.3,7.42,7.42,0,0,1,3.54-3.54,14.22,14.22,0,0,1,12.08.26,8.11,8.11,0,0,1,3.56,3.92,18.41,18.41,0,0,1,1,6.87Zm-9.3-5v-2.23a11.15,11.15,0,0,0-.25-3,1,1,0,0,0-1-.69c-.64,0-1,.2-1.2.58a12.44,12.44,0,0,0-.23,3.16v2.23Z"/><path d="M387.66,99.35v8.79a7.6,7.6,0,0,1,2.56-2,7.27,7.27,0,0,1,3.06-.65,8.58,8.58,0,0,1,3.31.59,4.77,4.77,0,0,1,2.13,1.68,5,5,0,0,1,.88,2.11,39.49,39.49,0,0,1,.15,4.41V128a21,21,0,0,1-.44,5,5.26,5.26,0,0,1-2.1,2.85,6.52,6.52,0,0,1-3.93,1.2,6.7,6.7,0,0,1-3-.71,8.15,8.15,0,0,1-2.58-2.14l-.6,2.3h-8.67V99.35Zm2.82,15.35a9.88,9.88,0,0,0-.3-3.09,1.15,1.15,0,0,0-1.17-.72,1.06,1.06,0,0,0-1.1.63,11.52,11.52,0,0,0-.25,3.18v13.13A10.07,10.07,0,0,0,388,131a1.27,1.27,0,0,0,2.27,0,13.42,13.42,0,0,0,.26-3.42Z"/><path d="M413,99.35v4.84h-9.55V99.35Zm0,6.7V136.5h-9.55V106.05Z"/><path d="M426.54,99.35V136.5H417V99.35Z"/><path d="M439.14,68.57q.47,34,.94,67.93h-9.55l-.39-67.93Z"/><path d="M29.87,84.62l-.21.08a1.75,1.75,0,0,0-.93,1.61c0,.56.44.88.92.74l.19-.07a1.86,1.86,0,0,0,.92-1.68A.67.67,0,0,0,29.87,84.62Z"/><path d="M49,71.35l-.19.07a1.86,1.86,0,0,0-.93,1.68.68.68,0,0,0,.89.69l.21-.08a1.82,1.82,0,0,0,.94-1.63A.72.72,0,0,0,49,71.35Z"/><path d="M40.51,79.51l-.2,0-.19.07a4.06,4.06,0,0,0-.56.37l-1,.8c.06.68.11,1.37.16,2l1-.8a4.15,4.15,0,0,0,.56-.54,3,3,0,0,0,.35-.53,1.91,1.91,0,0,0,.17-.49,1.27,1.27,0,0,0,0-.47.69.69,0,0,0-.09-.35A.3.3,0,0,0,40.51,79.51Z"/><path d="M39.94,75.89l-.15,0a2.41,2.41,0,0,0-.78.46l-.78.63.15,2c.24-.19.48-.37.72-.57a4,4,0,0,0,.93-1,1.68,1.68,0,0,0,.26-1C40.26,76.07,40.15,75.89,39.94,75.89Z"/><path d="M72.28,39a2.63,2.63,0,0,0-2.16-.48,3.74,3.74,0,0,0-.45.12h0a65.48,65.48,0,0,1-7.36,2,22,22,0,0,1-2.94.41,27.63,27.63,0,0,0-3.79.44,8.28,8.28,0,0,0-4.25,1.94,6.85,6.85,0,0,0-2,4.42,22.82,22.82,0,0,1-.87,3.64,64.37,64.37,0,0,1-2.91,7.76,32.36,32.36,0,0,1-1.74,3.36,8.68,8.68,0,0,1-1.56,2,.92.92,0,0,0-.29.49c-1.18.88-2.35,1.81-3.52,2.75A65.34,65.34,0,0,1,29.78,74a8,8,0,0,1-.79-.15,77,77,0,0,1-8.72-3.13c-1.64-.67-3.22-1.34-4.51-1.92S13.44,67.73,13,67.46a5,5,0,0,0-3.36-.59,4.6,4.6,0,0,0-3.32,2.88,46.75,46.75,0,0,1-3.11,3.88c-.56.62-1.09,1.21-1.57,1.69A15.53,15.53,0,0,1,.45,76.4h0a1.32,1.32,0,0,0-.28.3,1.3,1.3,0,0,0-.17.57,1.61,1.61,0,0,0,0,.45,4,4,0,0,0,.62,1.36A6.38,6.38,0,0,0,2.73,81a4.72,4.72,0,0,0,3.32.59,5.5,5.5,0,0,0,2.2-1,4,4,0,0,0,1.29,2.11,3.11,3.11,0,0,0,2.59.7A3.63,3.63,0,0,0,14,82.34a3.19,3.19,0,0,0,.33.4,3.49,3.49,0,0,0,1.53.88A2.91,2.91,0,0,0,18.7,83a9.72,9.72,0,0,0,1.11-1.21c.37,4.88.91,11.94,1.26,16.61a11.71,11.71,0,0,0,6.3-.07c4.37-1.21,8.58-4.56,12.79-7.9s8.42-6.69,12.8-7.91a12.27,12.27,0,0,1,3.39-.47,13.34,13.34,0,0,1,2.43.34h.13l.18-.12a.54.54,0,0,0,.12-.34c-.06-.65-.9-11.84-1.49-19.58.31,0,.62-.08.92-.14a8.67,8.67,0,0,0,4.45-2.18,4.92,4.92,0,0,0,1.11-1.6,3,3,0,0,0,.2-1.74,2.37,2.37,0,0,0-.3-.76,6.66,6.66,0,0,0,2.8-2.22,6.35,6.35,0,0,0,.94-1.9A4.15,4.15,0,0,0,68,49.89a2.9,2.9,0,0,0-.41-1,10.29,10.29,0,0,0,4.26-3,6.34,6.34,0,0,0,1.51-5A3,3,0,0,0,72.28,39ZM19,80.09a14.54,14.54,0,0,0-1.14,1.27,3,3,0,0,1-.44.4,1.15,1.15,0,0,1-.38.17,1.25,1.25,0,0,1-.61-.05,1.71,1.71,0,0,1-.74-.41,1.06,1.06,0,0,1-.29-.54,1.56,1.56,0,0,1,.08-.77l.21-.51A.92.92,0,0,0,14,78.89s0,.07-.05.1h0l0,.05a4.25,4.25,0,0,0-.21.49A5.34,5.34,0,0,1,12.75,81a1.85,1.85,0,0,1-1,.61,1.23,1.23,0,0,1-1-.3A2.1,2.1,0,0,1,10,80.1a2.18,2.18,0,0,1,.3-1.6.93.93,0,0,0-1.53-1,5.42,5.42,0,0,1-3.1,2.38,2.73,2.73,0,0,1-1.4-.09,4.13,4.13,0,0,1-1.71-1.17,4.86,4.86,0,0,1-.53-.72l-.13-.25c.3-.26.62-.57,1-.95a53,53,0,0,0,4.92-5.86L8,70.58a2.77,2.77,0,0,1,2-1.85,3.11,3.11,0,0,1,2.11.4c.67.36,1.93,1,3.52,1.65,2.39,1,5.49,2.33,8.24,3.35,1.21.45,2.34.84,3.33,1.15-.5.19-1,.36-1.51.5a12,12,0,0,1-3.66.47,12.23,12.23,0,0,1-2.16-.33h-.12l-.19.12a.47.47,0,0,0-.12.34c0,.2.11,1.42.25,3.22A2.87,2.87,0,0,0,19,80.09Zm8.22,15.66-.5.13a4.38,4.38,0,0,0-3.59-3.51q-.37-4.8-.73-9.61l.35-.07a4.26,4.26,0,0,0,2.65-4.1l.5-.13c3.18-.88,6.26-2.88,9.32-5.19a19.48,19.48,0,0,0-3,11.21c.28,3.72,2,6,4.33,6.08C33.43,92.87,30.34,94.87,27.17,95.75Zm14.45-13.7a12.41,12.41,0,0,1-1,1l.09,1.24-1,.75c0-.4-.05-.81-.09-1.22l-.88.7c0,.4.07.81.1,1.22l-1,.76c0-.41,0-.82-.09-1.22l-.77.59-1,.76-.09-1.13a.5.5,0,0,1,.16-.52l.07-.08.51-.42a.59.59,0,0,0,.19-.51c-.13-1.81-.27-3.63-.41-5.46,0-.15-.07-.19-.16-.17l-.09,0c-.09,0-.47.33-.51.35l-.08,0-.07,0c-.13,0-.12-.1-.13-.29l-.09-1,1-.76.76-.59L37,74.92l1-.75c0,.42.07.84.1,1.26l.88-.7c0-.41-.07-.84-.1-1.25l1-.78c0,.43.07.86.09,1.29a4.2,4.2,0,0,1,1.16-.58,1.3,1.3,0,0,1,.51,0,.76.76,0,0,1,.61.33,1.91,1.91,0,0,1,.26.87,2.66,2.66,0,0,1,0,.68,4,4,0,0,1-.22.76,9.45,9.45,0,0,1-.86,1.53,2.67,2.67,0,0,1,.64-.29c.73-.2,1.12.19,1.19,1A3.76,3.76,0,0,1,43,79.5a5.35,5.35,0,0,1-.54,1.31A6.25,6.25,0,0,1,41.62,82.05Zm14.65-6.41-.33.07a4.24,4.24,0,0,0-2.67,4.1l-.5.13c-3.17.88-6.26,2.88-9.32,5.19a19.56,19.56,0,0,0,3-11.21c-.28-3.71-2-6-4.33-6.08,3.06-2.31,6.15-4.31,9.32-5.19l.5-.13a4.33,4.33,0,0,0,3.6,3.5ZM70.39,44.75a9.45,9.45,0,0,1-5.72,3.13A.93.93,0,0,0,65,49.71a1.3,1.3,0,0,1,.91.11.69.69,0,0,1,.28.48,2.27,2.27,0,0,1-.09,1.06,4.57,4.57,0,0,1-1.21,2,4.68,4.68,0,0,1-2.35,1.24,4.42,4.42,0,0,1-1.17.09h0a1,1,0,0,0-.94.91.93.93,0,0,0,.9.95h0a1.87,1.87,0,0,1,1,.23.58.58,0,0,1,.27.38,1.21,1.21,0,0,1-.1.68,3.61,3.61,0,0,1-1.3,1.48,7.37,7.37,0,0,1-2.9,1.18c-.22,0-.47.08-.71.11,0-.22,0-.44-.05-.65a11.58,11.58,0,0,0-6.29.07,20.9,20.9,0,0,0-5.09,2.3,59,59,0,0,0,3.26-7.65c.46-1.35.87-2.63,1.17-3.75a19.06,19.06,0,0,0,.6-2.79,5,5,0,0,1,1.42-3.28A6.61,6.61,0,0,1,56,43.35a25.25,25.25,0,0,1,3.54-.41,26.14,26.14,0,0,0,3.19-.44,70.68,70.68,0,0,0,7.6-2.09h0l.21-.06a.72.72,0,0,1,.64.11,1.27,1.27,0,0,1,.39.76A4.54,4.54,0,0,1,70.39,44.75Z"/><path d="M467.39,160.3l.1,0a.87.87,0,0,1,.47.81c0,.28-.22.44-.46.37l-.1,0a.94.94,0,0,1-.46-.85A.33.33,0,0,1,467.39,160.3Z"/><path d="M457.77,153.62l.09,0a.94.94,0,0,1,.47.85.34.34,0,0,1-.45.35l-.1,0a.9.9,0,0,1-.47-.82C457.33,153.71,457.53,153.55,457.77,153.62Z"/><path d="M462,157.73h.1l.1,0,.28.18.51.4c0,.35-.06.69-.08,1l-.52-.4a3.69,3.69,0,0,1-.28-.28,1.64,1.64,0,0,1-.17-.26.69.69,0,0,1-.09-.25,1,1,0,0,1,0-.24.38.38,0,0,1,.05-.17A.13.13,0,0,1,462,157.73Z"/><path d="M462.32,155.9h.07a1.3,1.3,0,0,1,.4.24l.39.31c0,.34-.05.68-.08,1l-.36-.29a2,2,0,0,1-.47-.5.85.85,0,0,1-.13-.51C462.16,156,462.21,155.9,462.32,155.9Z"/><path d="M446,137.32a1.3,1.3,0,0,1,1.09-.25l.22.06h0a31.78,31.78,0,0,0,3.71,1,11.17,11.17,0,0,0,1.48.21,15,15,0,0,1,1.91.22,4.24,4.24,0,0,1,2.14,1,3.46,3.46,0,0,1,1,2.22,11.62,11.62,0,0,0,.44,1.83,32,32,0,0,0,1.46,3.91,16.57,16.57,0,0,0,.88,1.7,4.31,4.31,0,0,0,.78,1,.47.47,0,0,1,.15.25l1.78,1.38a32.35,32.35,0,0,0,4.35,3.1l.4-.08a39.82,39.82,0,0,0,4.39-1.57c.82-.34,1.62-.68,2.27-1s1.17-.53,1.41-.67a2.55,2.55,0,0,1,1.7-.29,2.32,2.32,0,0,1,1.67,1.44,23.77,23.77,0,0,0,1.56,1.95c.28.32.55.61.79.86a7.58,7.58,0,0,0,.58.54h0l.14.15a.61.61,0,0,1,.08.29.52.52,0,0,1,0,.22,1.7,1.7,0,0,1-.31.69,3.28,3.28,0,0,1-1,1,2.45,2.45,0,0,1-1.67.3,3.07,3.07,0,0,1-1.11-.51,2,2,0,0,1-.65,1.06,1.56,1.56,0,0,1-1.3.35,1.81,1.81,0,0,1-.94-.54,1.06,1.06,0,0,1-.17.2,1.69,1.69,0,0,1-.77.45,1.61,1.61,0,0,1-.75,0,1.46,1.46,0,0,1-.68-.34,5.79,5.79,0,0,1-.56-.61c-.19,2.46-.45,6-.63,8.36a5.78,5.78,0,0,1-3.17,0c-2.2-.61-4.32-2.29-6.44-4s-4.24-3.37-6.44-4a6.3,6.3,0,0,0-1.71-.24,6.53,6.53,0,0,0-1.22.17h-.07l-.09-.05a.3.3,0,0,1-.06-.18c0-.32.45-6,.75-9.85l-.47-.07a4.45,4.45,0,0,1-2.24-1.1,2.39,2.39,0,0,1-.55-.8,1.59,1.59,0,0,1-.11-.88,1.14,1.14,0,0,1,.16-.38,3.31,3.31,0,0,1-1.41-1.12,3.2,3.2,0,0,1-.48-1,2.18,2.18,0,0,1-.06-1,1.28,1.28,0,0,1,.21-.5,5.12,5.12,0,0,1-2.15-1.52,3.2,3.2,0,0,1-.76-2.54A1.52,1.52,0,0,1,446,137.32ZM472.89,158a7.36,7.36,0,0,1,.57.64,1.9,1.9,0,0,0,.22.2.43.43,0,0,0,.19.08.57.57,0,0,0,.31,0,.86.86,0,0,0,.37-.21.47.47,0,0,0,.14-.27.68.68,0,0,0,0-.39,1.89,1.89,0,0,1-.11-.25.48.48,0,0,1,.24-.6.47.47,0,0,1,.61.21s0,0,0,.05h0s0,0,0,0a1.89,1.89,0,0,1,.11.25,2.79,2.79,0,0,0,.46.74,1,1,0,0,0,.5.31.59.59,0,0,0,.52-.15,1.08,1.08,0,0,0,.2-1.42.47.47,0,0,1,.13-.63.46.46,0,0,1,.64.1,2.76,2.76,0,0,0,1.56,1.2,1.4,1.4,0,0,0,.71,0,2.07,2.07,0,0,0,.86-.59,2.59,2.59,0,0,0,.27-.36l.06-.13c-.15-.13-.31-.28-.5-.47a27.31,27.31,0,0,1-2.47-2.95l-.06-.11a1.38,1.38,0,0,0-1-.93,1.54,1.54,0,0,0-1.06.2c-.34.18-1,.48-1.78.83-1.2.53-2.76,1.17-4.14,1.69-.61.22-1.18.42-1.68.57a7.58,7.58,0,0,0,.76.26,6.11,6.11,0,0,0,1.85.24,7.06,7.06,0,0,0,1.08-.17h.06l.09,0a.26.26,0,0,1,.07.18c0,.1-.06.71-.13,1.62A1.61,1.61,0,0,1,472.89,158Zm-4.14,7.88.25.06a2.19,2.19,0,0,1,1.81-1.76l.36-4.84-.17,0a2.13,2.13,0,0,1-1.34-2.06l-.25-.06a14.53,14.53,0,0,1-4.69-2.62,9.81,9.81,0,0,1,1.51,5.65c-.14,1.87-1,3-2.18,3.06A14.73,14.73,0,0,0,468.75,165.9Zm-7.28-6.9a5.11,5.11,0,0,0,.52.52c0,.2,0,.41,0,.62l.48.38c0-.2,0-.41.05-.61l.44.35c0,.2,0,.41-.05.61l.49.39c0-.21,0-.42.05-.62l.39.3.49.38c0-.19,0-.38,0-.57a.27.27,0,0,0-.08-.26l0,0-.25-.21a.29.29,0,0,1-.1-.26c.06-.91.13-1.83.2-2.75,0-.07,0-.09.08-.08l.05,0,.26.18,0,0h0c.07,0,.06,0,.07-.14s0-.34,0-.51l-.5-.38-.38-.3c0-.21,0-.42,0-.63l-.48-.38c0,.21,0,.42-.05.63l-.44-.35c0-.21,0-.42.05-.63l-.49-.39c0,.22,0,.43-.05.65a1.86,1.86,0,0,0-.58-.29.6.6,0,0,0-.26,0,.38.38,0,0,0-.3.16.92.92,0,0,0-.13.45,1.35,1.35,0,0,0,0,.34,2,2,0,0,0,.11.38,5.41,5.41,0,0,0,.43.77,1.5,1.5,0,0,0-.32-.15c-.37-.1-.56.1-.6.53a1.88,1.88,0,0,0,.07.61,3.54,3.54,0,0,0,.69,1.28Zm-7.37-3.22.17,0a2.13,2.13,0,0,1,1.34,2.06l.25.06a14.72,14.72,0,0,1,4.69,2.62,9.81,9.81,0,0,1-1.51-5.65c.14-1.87,1-3,2.18-3.06a14.83,14.83,0,0,0-4.7-2.61l-.25-.07a2.19,2.19,0,0,1-1.81,1.77ZM447,140.23a4.81,4.81,0,0,0,2.88,1.58.46.46,0,0,1,.37.53.47.47,0,0,1-.53.38.67.67,0,0,0-.45.06.35.35,0,0,0-.14.24,1.17,1.17,0,0,0,0,.54,2.28,2.28,0,0,0,.61,1,2.37,2.37,0,0,0,1.18.63,2.78,2.78,0,0,0,.59,0h0a.47.47,0,0,1,.47.46.46.46,0,0,1-.45.48h0a1,1,0,0,0-.51.11.3.3,0,0,0-.14.2.67.67,0,0,0,0,.34,1.81,1.81,0,0,0,.66.75,4,4,0,0,0,1.46.59l.35.05,0-.32a5.75,5.75,0,0,1,3.16,0,10.46,10.46,0,0,1,2.57,1.16,30.51,30.51,0,0,1-1.64-3.85c-.24-.68-.44-1.33-.59-1.89a10.65,10.65,0,0,1-.31-1.41,2.54,2.54,0,0,0-.71-1.65,3.4,3.4,0,0,0-1.69-.74,13.76,13.76,0,0,0-1.78-.2,12.09,12.09,0,0,1-1.6-.23A33.19,33.19,0,0,1,447,138h0l-.1,0a.36.36,0,0,0-.33.06.73.73,0,0,0-.2.38A2.34,2.34,0,0,0,447,140.23Z"/><g id="Introduction"><g id="variations-sitting"><g id="a-person_sitting" data-name="a-person/sitting"><g id="pose_sitting_crossed_legs" data-name="pose/sitting/crossed_legs"><path id="_-Background" data-name="ðŸŽ¨-Background" class="cls-1" d="M469.06,60.83a3.84,3.84,0,0,0-.91-.11,12.28,12.28,0,0,0-3.18.67c-.45.11-.93.24-1.42.34s-.88.1-1.33.13-.78,0-.91.36a5.37,5.37,0,0,1-2.07.08,1.24,1.24,0,0,0,0-.69,1.62,1.62,0,0,0,.1-.18h-.08c-1.22-.49-2.54-.82-3.77-1.33-1.6-.57-4-1.69-5.81-2.45a7.52,7.52,0,0,0,.12-2.06l.08-.06a1.23,1.23,0,0,1,.13-.41,3.52,3.52,0,0,0,.12-.81,5.93,5.93,0,0,0,0-1.88,3,3,0,0,0-1.21-2c-.74-.73-1.47-1.43-2.19-2.19-4-4-4.29-9.14-10.51-10.69v0c-.05-.06-.07-.1-.13,0-.2-.08-.46-.07-.63-.21a2.53,2.53,0,0,1-.67-1c-.11-.72,0-1.83-.66-2.29s-4.43-.72-4.75.2a1.37,1.37,0,0,0-.36.72c-.2.39-.33.82-.54,1.22-.45.9-.74.7-1.52.9-.09-.19-.35-.15-.54-.12-2.28.32-5.07,1.19-6.05,3.34h.09c-1.69,3.17-.6,7.19-.29,10.55a28.43,28.43,0,0,1-.7,8.77,11.41,11.41,0,0,0,.75,8.93c.17.3.37.73.72.54a2,2,0,0,0,.71.34,2.26,2.26,0,0,0,.26.2l.15-.07c.27.37,14.78,1.63,16.29,1.83,1.32.16,3.08.56,4.16-.39a6.94,6.94,0,0,0,2.54-1.58c.44,6.28.68,19.13,1.06,19.22l.59.18c0,.45,0,1,0,1.41s-.21,1.09-.28,1.61c-.29,0-.38.28-.41.48a27.44,27.44,0,0,0-.23,4.77c3,1.75,6.45,2.71,9.79,3.84.32.24,1,0,1.39-.09,1.28-.25,2.74-1,2.42-2.36-.24-1-1.24-1.62-2.08-2.23a27.26,27.26,0,0,1-2.72-2.12,16,16,0,0,1-1.75-1.84,5.39,5.39,0,0,0-.85-1.13c.35-.42-.37,0-.64,0-.16-.75-.36-1.47-.59-2.19H451c.76-.71,1.18-4.1,1.23-5.11.38-6.56.38-14.13-1.15-19.66,1.16.71,2.43,1.31,3.58,2A9.13,9.13,0,0,0,457,67.45a.2.2,0,0,0,.35.06c.15,0,.33,0,.35-.1a2,2,0,0,0,.34-1l-.2-.46a5.75,5.75,0,0,0,1.41.6c1,3.22,2.87,1.42,4.7.16l3.48-2.44c1-.79,2.92-1.53,2-3.08"/><path id="_-Ink" data-name="ðŸ–-Ink" class="cls-2" d="M427.55,37c.93-.22,1.09-2.46,1.65-2.14.33.28-.2.82-.3,1.14l0,.08a2.14,2.14,0,0,1-.78,1c-.25.26-1,0-.86.41.37,1.23,2.34,2.07,3.5,2.45,1.81.68,4.73.45,5.16-1.82-1-.18-1.73-2-1.12-2.71a2.61,2.61,0,0,0,.79,2l0,0c.1.09.23.2.36.18a.26.26,0,0,1,.44.11c5.64,1,6.9,7,10.45,10.63.71.75,1.45,1.46,2.19,2.18a3.28,3.28,0,0,1,1.31,2.39,6.28,6.28,0,0,1,0,1.62v0a2.7,2.7,0,0,1-.21,1c0,.1,0,.23-.11.3a8.27,8.27,0,0,1-.1,1.86l.27.12a91.81,91.81,0,0,0,9.15,3.59c.27,0,.24.26.12.4a1.2,1.2,0,0,1,0,.5,5.22,5.22,0,0,0,1.72-.09c.18-.39.65-.37,1-.38s.91-.07,1.36-.14c1.12-.25,2.21-.57,3.32-.86a4.41,4.41,0,0,1,2.28,0,3.79,3.79,0,0,1,.34.45c.67,1,0,2-.94,2.57L463.94,67l-.11.08C462,68.35,460,70,459,66.84a3.69,3.69,0,0,1-.92-.39,1.75,1.75,0,0,1-.33,1.09.45.45,0,0,1-.45.24.36.36,0,0,1-.55-.09,9.81,9.81,0,0,1-2.25-1.22c-1-.63-2.14-1.17-3.2-1.77,1.76,7.26,1.33,14.84.86,22.24V87a2.51,2.51,0,0,1-1.2,2.26c.15.47.29.95.4,1.44,0,.11.21,0,.21.16.32-.07,1,0,.74.45A18.29,18.29,0,0,1,454,93.18a16.59,16.59,0,0,0,3.54,2.93c2.92,1.48,3.08,4-.32,4.93h0c-.47.11-1,.37-1.49.15-.68-.13-1.35-.4-2-.6a69.85,69.85,0,0,1-7.84-3.11.26.26,0,0,1-.14-.24c0-.82-.2-5.3.65-5.4a11.84,11.84,0,0,0,.19-2.79c-.28-.09-.56-.17-.84-.23s-.71-.1-.9-.33a.14.14,0,0,1-.1-.17c.15-1.41.26-2.82.34-4.22a110.31,110.31,0,0,0-.13-14.2,6.6,6.6,0,0,1-2.28,1.35,2.94,2.94,0,0,1-1.85.63,13.23,13.23,0,0,1-2.43-.22,16.54,16.54,0,0,0-4.1.15l-.47.06c-3.34.37-7,.44-10.06-1-.58,0-1.31-.58-1.68-1-.16.1-.32-.09-.44-.19a2.26,2.26,0,0,1-.65-.3c-.49.16-.75-.47-.94-.81-2.94-5,.34-10.05.09-15.39.15-4.19-1.76-8.55.09-12.57.37-1.7,2.56-2.88,4.2-3.31.53-.08,2.54-.81,2.76-.2A.53.53,0,0,1,427.55,37ZM452,91.5c-.27,0-.54,0-.82.1a7.73,7.73,0,0,0-2.8,1.08,3.55,3.55,0,0,1-.84.49,1,1,0,0,1-1.25-1,28.06,28.06,0,0,0,0,4.85,81,81,0,0,0,7.83,3.08,12.84,12.84,0,0,1,1.86.67,5.71,5.71,0,0,0,2.67-.9c1.31-.91.44-2.34-.65-3A16,16,0,0,1,452,91.5Zm-5.23-2.36c-.05.47.31,1.21.26,2.16a3.88,3.88,0,0,0-.1.9c.15,1.1,1.34-.3,1.83-.45A7.22,7.22,0,0,1,451,91c0-.25-.17-.36-.19-.61s0-.72-.05-1.09C449.73,89.72,447.83,89.39,446.75,89.14Zm5.47,2.29-.05,0a4.15,4.15,0,0,0,.43.51l-.07-.11C452.43,91.71,452.33,91.57,452.22,91.43ZM420.7,52.14a1.45,1.45,0,0,1-.28.57c.72,5.83-3,10.69.42,16.12l.12.07.06,0c1.6-2.82,3.87-5.26,5.68-8a12.15,12.15,0,0,0,1.14-2.14C424.2,57.32,422.75,55.23,420.7,52.14ZM468.62,61a1.35,1.35,0,0,1-.49,0,5.92,5.92,0,0,0-1.72.3,48.74,48.74,0,0,1-4.93,1.1l-.09.1a.15.15,0,0,1,0,.17c-.25.48-.05,1.07-.23,1.59a3.7,3.7,0,0,1-2,2.58c.35.33.6.76,1,1.08.89.61,1.86-.3,2.59-.78,1.38-1,2.76-1.94,4.15-2.9.62-.52,2-1.17,2.29-1.85A1.44,1.44,0,0,0,468.62,61Zm-9.51,1.33a20.1,20.1,0,0,0-1.27,3.79c.35.1.68.25,1,.36s1.19-.85,1.44-1.22a4.27,4.27,0,0,0,.52-1.38,4.76,4.76,0,0,1,.2-1.41A4.45,4.45,0,0,1,459.11,62.31Zm-35.29-2.49c.56-.16-.71,1.1-.78,1.23-.82,1-1.58,2-2.33,3l-.23.31s-.17.26-.06.23,0,0,0,0C419.73,64.76,423.49,59.9,423.82,59.82Zm13.59-.6c0-.13-.16-.19-.21-.06l-.14.43c-.54,1.61-1.07,3.23-1.71,4.81-.06.13.16.19.21.06C436.26,62.74,436.83,61,437.41,59.22Zm6.25-.56a22.66,22.66,0,0,1-1,2.64A2.53,2.53,0,0,0,444,60.21v0c.15-.24.33-.61.68-.44.53.31.15,1.41.14,1.93a16.67,16.67,0,0,1-.46,2.07c.41-.28.53-.83.73-1.25l.76-1.83h0c.56-.77.3,1.53.27,1.75a5.33,5.33,0,0,0-.17,1.43,3.49,3.49,0,0,0,.68-1.2c.24-.6.45-1.21.67-1.82a.17.17,0,0,1,.32.09l0,2.06v.52c0,.1,0,.38.12.31a5.75,5.75,0,0,0,1-4.05A9.21,9.21,0,0,1,443.66,58.66Zm15.53,3.47a.19.19,0,0,1,0,.07h0A.17.17,0,0,0,459.19,62.13Zm-38.77,0c-.19-.14,3.07-4.32,2.85-3.11C422.37,60.09,421.31,61,420.42,62.13Zm28.77-9.23c-3.05-.71-5.73,2-8.79,1.56,0,.95.08,1.91.06,2.87,4.07.33,3.6,2.06,8.28,1.89.6-.41.85-2.88.8-3.63s-.72-1.28-1.48-1.44c-.27.17-.77-.33-.36-.5A4.65,4.65,0,0,0,449.19,52.9ZM426.75,37.24a10,10,0,0,0-3.16.85c-3.68,1.06-4.21,5.37-3.77,8.63a13.21,13.21,0,0,0,2.39,6.92c4,6,10.53,5.08,16.75,4.28.22-.15.6,0,.82-.25l-.07,0a.56.56,0,0,0,.21-.37H440c0-.94,0-1.85,0-2.78-2-.56-4.23-.85-6.31-1.41-.23.17-.5,0-.73-.11-.6-.25-1.2-.49-1.81-.72l-.15-.06-1.18-.46-.14-.06c-.23-.09-.79-.43-1-.21l0,0c.15.31.64,1.48,0,1.25s-.76-2.79-1.25-2.81a5,5,0,0,0-.32,1.41c0,.11-.15.2-.24.1-.58-.77.3-1.61.32-2.42a9.5,9.5,0,0,0-.57-2.73v-.07a7.07,7.07,0,0,1-.26-1.82l.12.45c.12.46.24.92.39,1.37.35,1.13,1,2.29.64,3.49.71,0,.84,1.15,1.1,1.67.44-.57,3.5.79,4.2,1l.13-.15c2.19-2.48,3.77-4.15,7.16-2.19a23.51,23.51,0,0,1-.74-5.85c0-.38-.18-1.36.12-1.56l.15,0v.2c0,.37,0,1,.18,1.13l.07.74a28.31,28.31,0,0,0,1,5.71,22.68,22.68,0,0,1,3.83,2.78l.13-.05c1.47-.54,3.24-1.22,4.73-.55a2.25,2.25,0,0,0-.37-1.06c-.34-.09-.56-.45-.81-.68-.77-.83-1.56-1.64-2.31-2.48C442.84,45,441.47,39.3,436.43,38c-.34,2.79-3.91,3.24-6.06,2.28l-.08,0c-1.34-.52-2.86-1.29-3.33-2.71v0C426.9,37.36,426.84,37.25,426.75,37.24Zm.76,15.87h0a2.39,2.39,0,0,0-.52,2.8.21.21,0,0,1-.32.25C425.81,55.18,426.77,53.85,427.51,53.11Zm21.82.17a5,5,0,0,1-1.11.61.18.18,0,0,1,0,.13,2.18,2.18,0,0,1,1.42.55c0-.13,0-.27,0-.41A.9.9,0,0,0,449.33,53.28Zm-23.72-3.47v0a0,0,0,1,1,0,0,1.13,1.13,0,0,1-.39.68l-.77.89c-.43.52-1.06,1-.92,1.79a.25.25,0,0,1-.47.12c-.54-1,1.16-1.9,1.73-2.56.27-.28.69-.49.78-.9Zm8.08,3.08s0,0,0,0l.27,0-.29-.07Zm-13.49-2.4c0,.11,0,.21,0,.32l0,.11h0a.16.16,0,0,1,0-.07h0C420.27,50.72,420.23,50.6,420.2,50.49ZM445,49.38c.22,0-.76.68-.82.77a.07.07,0,1,1-.08-.12Zm-1.91-2.07a.14.14,0,0,1,.11.26,10.54,10.54,0,0,0-1.54.77s-.05,0,0,0l.06,0A6.29,6.29,0,0,1,443.05,47.31Zm-22.67-3.16c.14.68.93.91,1.54,1.09l.19.07a3.68,3.68,0,0,1,1.48.87c.15.49-.93-.36-1.08-.4C421.77,45.32,420.43,45.24,420.38,44.15Zm16-6.38v.11h.14Z"/></g><g id="Head"><g id="head_Gray-Short" data-name="head/Gray-Short"><path id="_-Background-2" data-name="ðŸŽ¨-Background" class="cls-1" d="M433.89,36.64a3.34,3.34,0,0,1-1.95-.58,7.14,7.14,0,0,1-1.85-.94c-.18.05-.4-.14-.53-.24a4.5,4.5,0,0,1-1.73-2.51.92.92,0,0,1-1.17.21,1.79,1.79,0,0,1-.53-2.33c-.66-1.49-1.12-5.43-.11-7,.21-.23.51-.38.73-.62a5.74,5.74,0,0,1,.61-.6,6.72,6.72,0,0,1,2.64-.94c3.12-.67,5.52.54,8.34,1.56a4.59,4.59,0,0,1-.64,1.12c.7.26.38.85-.17,1.15l-.32-.16c.51,1.81,1.67,6.3,1.17,7.74a4.76,4.76,0,0,1-4.49,4.16"/><path id="_-Ink-2" data-name="ðŸ–-Ink" class="cls-2" d="M434.34,36.83a3.34,3.34,0,0,1-2.89-.95.16.16,0,0,1,0-.08.11.11,0,0,1,0-.08.12.12,0,0,1,.07,0h.09l.06,0a4.8,4.8,0,0,0,1.46.56,4,4,0,0,0,1.61,0,4.14,4.14,0,0,0,2.34-1.53,5.75,5.75,0,0,0,1.13-2.93,11.74,11.74,0,0,0-.45-3.77c-.3-1.3-.63-2.59-1-3.86a.22.22,0,0,1,0-.11.5.5,0,0,0-.36,0,2.37,2.37,0,0,0-.61.37l-.19.14a1.52,1.52,0,0,1-.74.28,1.83,1.83,0,0,1-.83-.18l-.39-.18a7.31,7.31,0,0,0-1.13-.43,5.68,5.68,0,0,0-1.64-.21,3.08,3.08,0,0,0-2.58,1.09,1.32,1.32,0,0,0-.28,1.14,2,2,0,0,0,.34.62l.05.07a.88.88,0,0,1,.16.32.4.4,0,0,1-.06.29,1.39,1.39,0,0,1-.15.19l-.11.13a2.28,2.28,0,0,0-.17.3,1.86,1.86,0,0,0-.14.66,4.33,4.33,0,0,0,.07.8c0,.19,0,.37.06.56a.15.15,0,0,1,0,.08.1.1,0,0,1-.07,0h0a.13.13,0,0,1,0,.06.2.2,0,0,0-.06-.07h0s0,0-.05-.06l-.09-.07a1,1,0,0,0-.56-.21.81.81,0,0,0-.53.2,1.51,1.51,0,0,0-.38,1.1,1.31,1.31,0,0,0,.43,1.09.78.78,0,0,0,.46.16,1.17,1.17,0,0,0,.41-.1l.12,0a.24.24,0,0,1,.12,0,.23.23,0,0,1,.1.07.22.22,0,0,1,.05.12.25.25,0,0,1,0,.12v0l.07.12A6.91,6.91,0,0,0,429,34a5.32,5.32,0,0,0,.7.64l0,0,.07.05c.07.06.16.15.24.15h.19a.17.17,0,0,1,.1.09.21.21,0,0,1,0,.12.21.21,0,0,1,0,.11.29.29,0,0,1-.15.14.34.34,0,0,1-.2,0,1.34,1.34,0,0,1-.51-.28l0,0a5.21,5.21,0,0,1-.78-.71,4.37,4.37,0,0,1-.93-1.55.79.79,0,0,1-.45.13,1.52,1.52,0,0,1-.69-.14,1.5,1.5,0,0,1-.79-1,2.61,2.61,0,0,1,.08-1.52l0,0a10.93,10.93,0,0,1-.66-4.31,10.82,10.82,0,0,1,.23-2.05,1.87,1.87,0,0,1,.4-.81,1.8,1.8,0,0,1,.39-.34,3.17,3.17,0,0,0,.35-.29l0-.06,0,0a3.19,3.19,0,0,1,.56-.54,3.57,3.57,0,0,1,.81-.45A9.06,9.06,0,0,1,430,20.8a9.88,9.88,0,0,1,4.26.09c.65.17,1.28.41,1.91.64l.18.06,1.46.54.69.25a.25.25,0,0,1,.12.11.16.16,0,0,1,0,.15,5,5,0,0,1-.53,1,.66.66,0,0,1,.18.19.68.68,0,0,1,.1.35c0,.42-.37.7-.69.9a.18.18,0,0,1-.09,0c.31,1.17.6,2.35.85,3.53l0,.09a9.53,9.53,0,0,1,.18,3.76,5.9,5.9,0,0,1-1.46,2.93A4.49,4.49,0,0,1,434.34,36.83Zm-6.66-7.13a3.25,3.25,0,0,1-.15-1.31,2.11,2.11,0,0,1,.24-.76,2.51,2.51,0,0,1,.27-.37l0,0a.1.1,0,0,0,0-.07s0,0,0,0A.28.28,0,0,0,428,27l-.06-.07a1.89,1.89,0,0,1-.43-1.36,2.45,2.45,0,0,1,.72-1.28,3.88,3.88,0,0,1,2.92-.88,6.43,6.43,0,0,1,1.74.31,7.18,7.18,0,0,1,.81.32l.06,0,.1.05a2.85,2.85,0,0,0,.63.25,1.18,1.18,0,0,0,1.05-.34,2.75,2.75,0,0,1,.33-.23h0a1.45,1.45,0,0,1,.7-.2.78.78,0,0,1,.56.23.17.17,0,0,1,.07.1.39.39,0,0,1,0,.09c.06.22.11.44.17.65l.05,0a.91.91,0,0,0,.36-.34.31.31,0,0,0,0-.23.1.1,0,0,0-.05-.06,0,0,0,0,0-.05,0l-.15,0a.35.35,0,0,1-.11-.1.28.28,0,0,1,0-.13.31.31,0,0,1,.06-.13,4.22,4.22,0,0,0,.6-.91l-1-.37-1.09-.4-.2-.08a17,17,0,0,0-2-.63,9.75,9.75,0,0,0-4.13.06l-.08,0a7.06,7.06,0,0,0-1.67.53,3,3,0,0,0-.7.48,3.25,3.25,0,0,0-.26.27,3.34,3.34,0,0,1-.37.38l-.13.1a1.5,1.5,0,0,0-.48.55,3.62,3.62,0,0,0-.21.8,12.69,12.69,0,0,0-.15,2.05,17.66,17.66,0,0,0,.41,3.41,1.07,1.07,0,0,1,.74-.49,1,1,0,0,1,.6.1,1.18,1.18,0,0,1,.28.22Zm-.34,1.37a1.37,1.37,0,0,0-.72-.08h-.08a.21.21,0,0,1,0-.06.09.09,0,0,1,0-.07s0,0,.05-.06a1.59,1.59,0,0,1,.86-.14h0a1.58,1.58,0,0,1,.52.17.42.42,0,0,1,.24.3.21.21,0,0,1,0,.19.19.19,0,0,1-.17.08.46.46,0,0,1-.31-.13l0,0A1.43,1.43,0,0,0,427.34,31.07Z"/></g><g id="face_Smile-Big" data-name="face/Smile-Big"><path id="_-Ink-3" data-name="ðŸ–-Ink" class="cls-2" d="M432.66,31.89a6.64,6.64,0,0,1,1.77.2,7.34,7.34,0,0,0,.93.1h.19a.17.17,0,0,1,.11-.14.8.8,0,0,1,.4-.08,2.71,2.71,0,0,1,.41,0,1.32,1.32,0,0,1,.68.33,1.18,1.18,0,0,1,0,1.53c-.68.94-1.9,1-2.95,1h-.1c-1,0-2.32.13-2.76-1a1.49,1.49,0,0,1,.06-1.24A1.52,1.52,0,0,1,432.66,31.89Zm3,1.5h0l-1.32,0c0,.11,0,.23,0,.34a2.51,2.51,0,0,1,0,.27.27.27,0,0,1,0,.13h0l.06,0s0,0,0,0a5.4,5.4,0,0,0,1.06-.07h0a.19.19,0,0,1,0-.1,2.08,2.08,0,0,0,0-.43A2.45,2.45,0,0,0,435.64,33.39Zm-1.67,0a2.26,2.26,0,0,1-1-.13l-.14.14h0c0,.15.06.32.09.48a.25.25,0,0,1-.25.28h0a8.65,8.65,0,0,0,1.25,0,1.76,1.76,0,0,1,0-.39v0C434,33.71,434,33.58,434,33.44Zm-2.15,0a.94.94,0,0,0,.06.24,1,1,0,0,0,.78.55.17.17,0,0,1-.12-.15,4.17,4.17,0,0,1,0-.61C432.27,33.44,432,33.43,431.82,33.41Zm5-.07a2.91,2.91,0,0,1-.51,0h-.45a3,3,0,0,0,0,.31c0,.13,0,.27,0,.4a1.5,1.5,0,0,0,.78-.53A1.16,1.16,0,0,0,436.84,33.34Zm-4.25-1a1,1,0,0,0-.67.45.94.94,0,0,0-.11.5c.23,0,.46,0,.69,0a.49.49,0,0,0,0-.12V33A2.61,2.61,0,0,1,432.59,32.37Zm1.4,0h-.12a5.49,5.49,0,0,0-1-.06l-.15,0a3.83,3.83,0,0,1,.08.67l0,.24h.06l1.07,0v-.27A4.91,4.91,0,0,1,434,32.4Zm1.67,0a6.25,6.25,0,0,1-1.05.07l-.41,0a1.64,1.64,0,0,1,0,.22c0,.14,0,.29,0,.43v.13h0l1.32-.07h.06l0-.24c0-.16,0-.33,0-.49h0Zm.15.06c0,.23,0,.46.05.69l.29,0h.14a1.8,1.8,0,0,1,.61,0,.45.45,0,0,0-.18-.44C436.45,32.44,436.11,32.51,435.81,32.43Zm-1-2c.43-.25,1.51-.5,1.58.27a.83.83,0,0,1-.55.79h0c-.29.12-.8.26-1.06,0s.07-.6.33-.43a.8.8,0,0,0,.57,0h0c.16-.05.37-.2.3-.39s-.31-.21-.46-.22a5.53,5.53,0,0,0-.7.07S434.8,30.41,434.83,30.39Zm1.78-1.25a.89.89,0,0,1,.81,1.14.21.21,0,0,1-.22.16h-.06a.23.23,0,0,1-.17-.22v0c0-.25,0-.53-.3-.59s-.39.18-.39.4a.06.06,0,0,1-.08.05.42.42,0,0,1-.15-.51A.63.63,0,0,1,436.61,29.14Zm-4.34.14a.94.94,0,0,1,1.09.46.16.16,0,0,1,.14.16.53.53,0,0,1-.12.3.27.27,0,0,1-.44-.11h0a.44.44,0,0,0-.55-.3c-.27.09-.27.38-.46.54a0,0,0,0,1-.07,0c-.2-.09-.17-.39-.1-.55A.9.9,0,0,1,432.27,29.28ZM431.69,28c.35-.35,1.25-.69,1.48,0a.26.26,0,0,1-.18.32,4,4,0,0,1-.6,0,1,1,0,0,0-.49.18c-.37.29-.45.78-.72,1.15,0,0,0,0,0,0A2.08,2.08,0,0,1,431.69,28Zm4.5-.34a1.18,1.18,0,0,1,.72,0,1.42,1.42,0,0,1,.6.39,1.05,1.05,0,0,1,.2.27c0,.05.06.15.09.22a.32.32,0,0,1,.1.5h0l0,0a.32.32,0,0,1-.33.09c-.27-.07-.3-.28-.39-.5a.89.89,0,0,0-.29-.37,1.38,1.38,0,0,0-1.15-.19s0,0,0,0a.83.83,0,0,1,.19-.23A1.3,1.3,0,0,1,436.19,27.65Z"/></g></g></g></g></g><path d="M455.73,23.25l-.11,0a.92.92,0,0,0-.47.82.37.37,0,0,0,.47.37l.09,0a1,1,0,0,0,.47-.85A.34.34,0,0,0,455.73,23.25Z"/><path d="M465.35,16.57l-.1,0a.94.94,0,0,0-.46.85.33.33,0,0,0,.44.34l.11,0a.92.92,0,0,0,.47-.82A.36.36,0,0,0,465.35,16.57Z"/><path d="M461.08,20.68l-.1,0-.09,0a1.54,1.54,0,0,0-.28.19l-.51.4c0,.35,0,.69.08,1l.51-.41a1.92,1.92,0,0,0,.29-.27,1.64,1.64,0,0,0,.17-.26,1.34,1.34,0,0,0,.09-.26.6.6,0,0,0,0-.23.48.48,0,0,0,0-.18A.19.19,0,0,0,461.08,20.68Z"/><path d="M460.8,18.86h-.08a1.42,1.42,0,0,0-.39.23l-.39.32c0,.34.05.68.07,1l.37-.29a1.76,1.76,0,0,0,.46-.5.84.84,0,0,0,.14-.52C461,19,460.91,18.86,460.8,18.86Z"/><path d="M477.08.27A1.33,1.33,0,0,0,476,0l-.22.06h0a34,34,0,0,1-3.71,1,11.17,11.17,0,0,1-1.48.21,13.21,13.21,0,0,0-1.91.22,4.2,4.2,0,0,0-2.14,1,3.42,3.42,0,0,0-1,2.22,11.62,11.62,0,0,1-.44,1.83,33.38,33.38,0,0,1-1.47,3.91,14.64,14.64,0,0,1-.87,1.69,4.18,4.18,0,0,1-.79,1,.45.45,0,0,0-.14.25c-.6.44-1.19.91-1.78,1.38a31.81,31.81,0,0,1-4.36,3.1l-.39-.08a38.21,38.21,0,0,1-4.39-1.58c-.83-.33-1.62-.67-2.27-1s-1.17-.54-1.42-.67a2.53,2.53,0,0,0-1.69-.3,2.32,2.32,0,0,0-1.67,1.45,23.77,23.77,0,0,1-1.56,1.95c-.28.32-.56.61-.79.85s-.45.44-.58.55h0a.67.67,0,0,0-.14.15.55.55,0,0,0-.08.29.79.79,0,0,0,0,.22,2,2,0,0,0,.32.69,3.16,3.16,0,0,0,1,1,2.33,2.33,0,0,0,1.67.3,2.76,2.76,0,0,0,1.11-.51,2,2,0,0,0,.65,1.07,1.6,1.6,0,0,0,1.3.35,1.93,1.93,0,0,0,.94-.54,1.56,1.56,0,0,0,.16.2,1.79,1.79,0,0,0,.77.44,1.5,1.5,0,0,0,.75.05,1.72,1.72,0,0,0,.69-.34,5.79,5.79,0,0,0,.56-.61c.18,2.45.45,6,.63,8.36a5.78,5.78,0,0,0,3.17,0c2.2-.61,4.32-2.29,6.44-4s4.24-3.37,6.44-4a5.93,5.93,0,0,1,1.71-.24,6.53,6.53,0,0,1,1.22.17h.07l.09-.06a.25.25,0,0,0,.06-.17c0-.33-.45-6-.75-9.85l.46-.07a4.41,4.41,0,0,0,2.24-1.1,2.37,2.37,0,0,0,.56-.81,1.45,1.45,0,0,0,.1-.87,1.09,1.09,0,0,0-.15-.39,3.37,3.37,0,0,0,1.41-1.11,3.32,3.32,0,0,0,.48-1,2.18,2.18,0,0,0,.06-1,1.44,1.44,0,0,0-.21-.5,5,5,0,0,0,2.15-1.53,3.19,3.19,0,0,0,.76-2.54A1.54,1.54,0,0,0,477.08.27ZM450.23,21c-.24.22-.41.46-.57.63a2,2,0,0,1-.22.21.6.6,0,0,1-.19.08.69.69,0,0,1-.31,0,1,1,0,0,1-.37-.21.52.52,0,0,1-.15-.27.8.8,0,0,1,0-.39c0-.08.07-.17.11-.26a.47.47,0,0,0-.24-.59.47.47,0,0,0-.61.21l0,.05h0a0,0,0,0,0,0,0,2.56,2.56,0,0,0-.11.24,2.63,2.63,0,0,1-.47.75,1,1,0,0,1-.49.31.64.64,0,0,1-.52-.15,1.1,1.1,0,0,1-.21-1.42.46.46,0,0,0-.13-.64.47.47,0,0,0-.64.11,2.7,2.7,0,0,1-1.56,1.19,1.37,1.37,0,0,1-.7,0,2.07,2.07,0,0,1-.86-.59,2.59,2.59,0,0,1-.27-.36l-.06-.13c.15-.13.31-.28.5-.48a26.37,26.37,0,0,0,2.47-2.95l.06-.1a1.36,1.36,0,0,1,1-.93,1.54,1.54,0,0,1,1.06.2c.34.18,1,.47,1.77.83,1.2.52,2.77,1.17,4.15,1.68.61.23,1.18.43,1.68.58-.26.1-.51.19-.76.26a6.47,6.47,0,0,1-1.85.23,7.56,7.56,0,0,1-1.08-.16h-.06l-.1.06a.27.27,0,0,0-.06.17c0,.1.06.72.13,1.63A1.33,1.33,0,0,0,450.23,21Zm4.14,7.88-.25.06a2.2,2.2,0,0,0-1.81-1.76c-.12-1.61-.24-3.23-.37-4.84l.18,0a2.15,2.15,0,0,0,1.34-2.06l.25-.06a14.72,14.72,0,0,0,4.69-2.62,9.88,9.88,0,0,0-1.52,5.64c.14,1.88,1,3.05,2.18,3.06A14.72,14.72,0,0,1,454.37,28.86Zm7.28-6.9c-.16.17-.35.36-.52.51,0,.21,0,.42,0,.63l-.48.38c0-.21,0-.41-.05-.62l-.44.35c0,.21,0,.41.05.62l-.49.38c0-.2,0-.41-.05-.61l-.39.29c-.16.14-.33.26-.49.39,0-.19,0-.38-.05-.57a.26.26,0,0,1,.08-.27l0,0a3,3,0,0,1,.25-.21.3.3,0,0,0,.1-.26L459,20.19c0-.08,0-.1-.08-.09l0,0a2,2,0,0,0-.26.18h0l0,0c-.07,0-.07-.05-.07-.14s0-.34,0-.51l.5-.38.38-.3c0-.21,0-.42-.05-.64.17-.12.33-.25.49-.38,0,.21,0,.43.05.64l.44-.35c0-.21,0-.43-.05-.63.16-.13.32-.27.49-.39,0,.21,0,.43,0,.65a2.14,2.14,0,0,1,.58-.3.72.72,0,0,1,.25,0,.38.38,0,0,1,.31.16.88.88,0,0,1,.13.44,1.32,1.32,0,0,1,0,.34,1.72,1.72,0,0,1-.12.39,3.92,3.92,0,0,1-.43.76,1.47,1.47,0,0,1,.33-.14c.36-.1.56.1.59.52a1.92,1.92,0,0,1-.06.62,2.67,2.67,0,0,1-.28.66A3.16,3.16,0,0,1,461.65,22ZM469,18.74a1,1,0,0,0-.17,0,2.13,2.13,0,0,0-1.34,2.07l-.25.06a14.69,14.69,0,0,0-4.69,2.61,9.85,9.85,0,0,0,1.51-5.64c-.14-1.87-1-3-2.18-3.06a14.79,14.79,0,0,1,4.69-2.61l.26-.07a2.18,2.18,0,0,0,1.81,1.76Zm7.11-15.55a4.79,4.79,0,0,1-2.88,1.57.47.47,0,0,0-.37.54.45.45,0,0,0,.52.38.66.66,0,0,1,.46.06c.07,0,.11.1.14.24a1.12,1.12,0,0,1,0,.53,2.25,2.25,0,0,1-.61,1,2.4,2.4,0,0,1-1.19.63,2.69,2.69,0,0,1-.58,0h0a.47.47,0,0,0,0,.93h0a1,1,0,0,1,.51.12.28.28,0,0,1,.14.19.73.73,0,0,1-.06.35,1.84,1.84,0,0,1-.65.74,3.74,3.74,0,0,1-1.46.59c-.11,0-.23,0-.35.06l0-.33a5.78,5.78,0,0,0-3.17,0A10.92,10.92,0,0,0,463.93,12a29.31,29.31,0,0,0,1.64-3.85c.24-.67.44-1.32.59-1.88a9,9,0,0,0,.3-1.41,2.54,2.54,0,0,1,.72-1.65,3.37,3.37,0,0,1,1.68-.74,13.59,13.59,0,0,1,1.79-.21,12.23,12.23,0,0,0,1.6-.22,33.8,33.8,0,0,0,3.83-1h0l.1,0a.36.36,0,0,1,.33.06.63.63,0,0,1,.19.38A2.29,2.29,0,0,1,476.13,3.19Z"/><path d="M402,66.93l.09,0a.77.77,0,0,1,.39.68c0,.24-.19.37-.39.31l-.08,0a.82.82,0,0,1-.39-.71A.29.29,0,0,1,402,66.93Z"/><path d="M393.91,61.35l.08,0a.79.79,0,0,1,.39.71.28.28,0,0,1-.37.29l-.09,0a.74.74,0,0,1-.39-.68C393.54,61.42,393.71,61.29,393.91,61.35Z"/><path d="M397.47,64.78h.09l.08,0,.23.16.43.33c0,.29-.05.58-.07.87l-.43-.34a1.63,1.63,0,0,1-.23-.22,1.28,1.28,0,0,1-.15-.23.58.58,0,0,1-.07-.21.65.65,0,0,1,0-.19.54.54,0,0,1,0-.15A.15.15,0,0,1,397.47,64.78Z"/><path d="M397.71,63.26h.07a1,1,0,0,1,.32.19l.33.27-.06.85-.3-.24a1.5,1.5,0,0,1-.39-.42.62.62,0,0,1-.11-.43C397.58,63.33,397.62,63.26,397.71,63.26Z"/><path d="M384.11,47.73a1.07,1.07,0,0,1,.91-.2l.19,0h0a29.25,29.25,0,0,0,3.1.85,8.79,8.79,0,0,0,1.23.17,14,14,0,0,1,1.59.18,3.58,3.58,0,0,1,1.79.82,2.89,2.89,0,0,1,.84,1.86,10.93,10.93,0,0,0,.37,1.53,28.17,28.17,0,0,0,1.22,3.27,11.41,11.41,0,0,0,.74,1.41,3.29,3.29,0,0,0,.65.84.38.38,0,0,1,.12.21c.5.37,1,.76,1.49,1.16A27,27,0,0,0,402,62.46l.33-.06A35,35,0,0,0,406,61.08c.68-.28,1.35-.56,1.89-.81s1-.44,1.19-.55a2.06,2.06,0,0,1,1.41-.25,1.9,1.9,0,0,1,1.39,1.21,20.34,20.34,0,0,0,1.31,1.63c.24.26.46.51.66.71s.37.36.48.45h0a.34.34,0,0,1,.12.12.49.49,0,0,1,.07.24.59.59,0,0,1,0,.19,1.64,1.64,0,0,1-.27.57,2.56,2.56,0,0,1-.87.82,2,2,0,0,1-1.39.25,2.29,2.29,0,0,1-.93-.43,1.67,1.67,0,0,1-.54.89,1.3,1.3,0,0,1-1.09.29,1.46,1.46,0,0,1-.78-.45c-.05.06-.09.12-.14.17a1.44,1.44,0,0,1-.65.37,1.21,1.21,0,0,1-.62,0,1.19,1.19,0,0,1-.57-.29,3.53,3.53,0,0,1-.47-.51c-.16,2.06-.38,5-.53,7a4.87,4.87,0,0,1-2.65,0c-1.84-.51-3.61-1.92-5.38-3.32s-3.54-2.82-5.38-3.33a5.36,5.36,0,0,0-1.43-.2,6.53,6.53,0,0,0-1,.14h-.05l-.08,0a.19.19,0,0,1-.05-.14c0-.28.38-5,.62-8.24a2.32,2.32,0,0,1-.38-.06A3.65,3.65,0,0,1,388,56.6a2.17,2.17,0,0,1-.46-.67,1.09,1.09,0,0,1,0-1.06,2.84,2.84,0,0,1-1.18-.93,2.69,2.69,0,0,1-.39-.8,1.77,1.77,0,0,1-.06-.82,1.19,1.19,0,0,1,.18-.42,4.33,4.33,0,0,1-1.8-1.27,2.65,2.65,0,0,1-.63-2.12A1.28,1.28,0,0,1,384.11,47.73ZM406.54,65a4.33,4.33,0,0,1,.48.53,1.37,1.37,0,0,0,.19.17.33.33,0,0,0,.16.07.58.58,0,0,0,.25,0,.68.68,0,0,0,.31-.17.37.37,0,0,0,.12-.23.56.56,0,0,0,0-.33c0-.07-.06-.13-.09-.21a.39.39,0,0,1,.21-.49.38.38,0,0,1,.5.17s0,0,0,0h0v0l.09.21a2,2,0,0,0,.39.62.78.78,0,0,0,.41.26.5.5,0,0,0,.44-.13.93.93,0,0,0,.17-1.18.39.39,0,0,1,.64-.44,2.3,2.3,0,0,0,1.3,1,1.15,1.15,0,0,0,.59,0,1.66,1.66,0,0,0,.72-.49,1.38,1.38,0,0,0,.22-.31.53.53,0,0,0,.06-.1c-.13-.11-.26-.24-.42-.4a21.6,21.6,0,0,1-2.07-2.47l0-.08a1.14,1.14,0,0,0-.85-.78,1.24,1.24,0,0,0-.88.17c-.29.15-.81.39-1.49.69-1,.44-2.31,1-3.46,1.41-.51.19-1,.35-1.4.48a5.17,5.17,0,0,0,.63.21,4.41,4.41,0,0,0,2.45.06h.05l.08,0a.17.17,0,0,1,.05.15c0,.08,0,.6-.1,1.36A1,1,0,0,1,406.54,65Zm-3.46,6.58.21.06a1.85,1.85,0,0,1,1.52-1.48l.3-4-.14,0a1.78,1.78,0,0,1-1.12-1.72l-.21-.06a12.2,12.2,0,0,1-3.92-2.18A8.15,8.15,0,0,1,401,66.87c-.11,1.57-.84,2.54-1.82,2.56A12.41,12.41,0,0,0,403.08,71.61ZM397,65.85a3.49,3.49,0,0,0,.43.43c0,.17,0,.34,0,.52l.41.32c0-.17,0-.35,0-.52l.37.3c0,.17,0,.34,0,.51l.4.32c0-.17,0-.34,0-.51l.33.25.41.31c0-.15,0-.31,0-.47a.22.22,0,0,0-.07-.22l0,0a2.13,2.13,0,0,0-.21-.18.25.25,0,0,1-.08-.21c.05-.77.11-1.53.17-2.3,0-.06,0-.08.07-.07l0,0,.21.15h.06c.06,0,.05,0,.06-.11l0-.43-.41-.31-.33-.26c0-.17,0-.35,0-.53l-.4-.32c0,.18,0,.36,0,.53-.13-.09-.25-.19-.37-.29s0-.35,0-.53l-.41-.32c0,.18,0,.36,0,.54a1.66,1.66,0,0,0-.48-.24l-.22,0a.39.39,0,0,0-.26.14.86.86,0,0,0-.1.37,1.43,1.43,0,0,0,0,.29,2.85,2.85,0,0,0,.1.32,3.7,3.7,0,0,0,.36.64,1,1,0,0,0-.27-.12c-.31-.09-.47.08-.5.43a1.57,1.57,0,0,0,.06.52,2.31,2.31,0,0,0,.23.55A2.37,2.37,0,0,0,397,65.85Zm-6.17-2.69a.32.32,0,0,1,.14,0,1.78,1.78,0,0,1,1.13,1.72l.21,0a12.26,12.26,0,0,1,3.92,2.19A8.24,8.24,0,0,1,395,62.43c.12-1.56.85-2.54,1.82-2.56a12.31,12.31,0,0,0-3.92-2.18l-.21,0a1.83,1.83,0,0,1-1.51,1.47C391.05,60.46,390.94,61.8,390.84,63.16Zm-5.94-13a4,4,0,0,0,2.41,1.32.39.39,0,0,1,.31.45.4.4,0,0,1-.44.32.58.58,0,0,0-.38,0,.3.3,0,0,0-.12.21,1,1,0,0,0,0,.44,1.87,1.87,0,0,0,.51.82,1.94,1.94,0,0,0,1,.53,2.49,2.49,0,0,0,.49,0h0a.39.39,0,0,1,0,.78h0a.88.88,0,0,0-.43.09.3.3,0,0,0-.11.17.55.55,0,0,0,.05.28,1.42,1.42,0,0,0,.54.62,3.07,3.07,0,0,0,1.22.5l.3,0a2.45,2.45,0,0,1,0-.27,4.83,4.83,0,0,1,2.64,0,8.92,8.92,0,0,1,2.15,1,23.43,23.43,0,0,1-1.37-3.22c-.2-.56-.37-1.1-.5-1.57a9.43,9.43,0,0,1-.25-1.18,2.14,2.14,0,0,0-.6-1.38,2.76,2.76,0,0,0-1.41-.62,11.23,11.23,0,0,0-1.48-.17,8.3,8.3,0,0,1-1.34-.19,28.91,28.91,0,0,1-3.2-.87h0l-.09,0c-.15,0-.21,0-.27,0a.58.58,0,0,0-.17.32A1.93,1.93,0,0,0,384.9,50.16Z"/></g></g></svg>